<?xml version="1.0" standalone="no"?><!DOCTYPE svg PUBLIC "-//W3C//DTD SVG 1.1//EN" "http://www.w3.org/Graphics/SVG/1.1/DTD/svg11.dtd"><svg class="icon" width="200px" height="200.00px" viewBox="0 0 1024 1024" version="1.1" xmlns="http://www.w3.org/2000/svg"><path d="M753.5 624.9h-90.4c-12.7 0-23-10.3-23-23s10.3-23 23-23h90.4c12.7 0 23 10.3 23 23s-10.3 23-23 23zM793 750.6H635.1c-12.7 0-23-10.3-23-23s10.3-23 23-23H793c12.7 0 23 10.3 23 23s-10.3 23-23 23zM762.3 495.8h-563c-12.7 0-23-10.3-23-23s10.3-23 23-23h563c12.7 0 23 10.3 23 23s-10.3 23-23 23zM473.4 623.2H199.7c-12.7 0-23-10.3-23-23s10.3-23 23-23h273.7c12.7 0 23 10.3 23 23s-10.3 23-23 23zM444.3 750.6H199.7c-12.7 0-23-10.3-23-23s10.3-23 23-23h244.6c12.7 0 23 10.3 23 23s-10.3 23-23 23zM434.1 347.9c-6.5-15.3-15.7-29.1-27.5-40.8-11.8-11.8-25.6-21.1-40.8-27.5-1.3-0.6-2.7-1.1-4-1.6 1.3-1.1 2.5-2.3 3.7-3.5 13.2-13.2 20.6-30.9 20.6-49.6s-7.3-36.3-20.6-49.6c-13.2-13.2-30.9-20.6-49.6-20.6-18.7 0-36.3 7.3-49.6 20.6-13.2 13.2-20.6 30.9-20.6 49.6s7.3 36.3 20.6 49.6c1.2 1.2 2.3 2.3 3.6 3.3-1.4 0.5-2.8 1.1-4.2 1.7-15.3 6.5-29.1 15.7-40.8 27.5-11.8 11.8-21.1 25.6-27.5 40.8-5.9 13.8-9.2 28.4-9.9 43.5-0.2 3.5 1.1 7 3.5 9.5s5.8 4 9.3 4c6.8 0 12.5-5.4 12.8-12.2 2.8-54.7 48-97.7 102.8-97.7 54.9 0 100 42.9 102.8 97.7 0.3 6.8 5.9 12.2 12.8 12.2 3.5 0 6.8-1.4 9.3-4 2.4-2.5 3.7-6 3.5-9.5-1-15-4.4-29.6-10.2-43.4z m-118.4-86.5c-18.5 0-33.6-15.1-33.6-33.6s15.1-33.6 33.6-33.6 33.6 15.1 33.6 33.6-15.1 33.6-33.6 33.6z m0 0M751.2 240.7h-210c-12.7 0-23-10.3-23-23s10.3-23 23-23h210c12.7 0 23 10.3 23 23s-10.2 23-23 23zM751.2 367.9h-210c-12.7 0-23-10.3-23-23s10.3-23 23-23h210c12.7 0 23 10.3 23 23s-10.2 23-23 23z"  /><path d="M136.2 848.6c-15.8 0-28.7-13.9-28.7-30.9V141.8c0-17.1 12.9-31 28.7-31h689.1c15.8 0 28.7 13.9 28.7 31v348.5c0 12.1 9.8 21.8 21.8 21.8 12.1 0 21.8-9.8 21.8-21.8V141.8c0-43-32.5-78-72.4-78h-689c-39.9 0-72.4 35-72.4 78v675.8c0 43 32.5 78 72.4 78h354.9c12.1 0 21.8-9.8 21.8-21.8v-3.4c0-12.1-9.8-21.8-21.8-21.8H136.2z"  /><path d="M868.9 832.8c-4.2-4.2-9.9-6.6-15.9-6.6s-11.7 2.3-15.9 6.6l-2.6 2.6c-8.8 8.8-8.8 23 0 31.8l85.6 85.6a22.5 22.5 0 0 0 15.9 6.6c5.8 0 11.5-2.2 15.9-6.6 10.2-10.2 10.2-26.8 0-37l-83-83zM876.2 773.9c9.8-23.3 14.8-48 14.8-73.5s-5-50.2-14.8-73.5c-9.5-22.5-23.1-42.6-40.5-60-17.3-17.4-37.5-31-60-40.5-23.3-9.8-48-14.8-73.5-14.8s-50.2 5-73.5 14.8c-22.5 9.5-42.6 23.1-60 40.5-17.4 17.3-31 37.5-40.5 60-9.8 23.3-14.8 48-14.8 73.5s5 50.2 14.8 73.5c9.5 22.5 23.1 42.6 40.5 60 17.3 17.4 37.5 31 60 40.5 23.3 9.8 48 14.8 73.5 14.8s50.2-5 73.5-14.8c22.5-9.5 42.6-23.1 60-40.5s31-37.5 40.5-60z m-173.9 93.3c-92 0-166.8-74.8-166.8-166.8 0-92 74.8-166.8 166.8-166.8 92 0 166.8 74.8 166.8 166.8 0 92-74.9 166.8-166.8 166.8z"  /><path d="M594.7 616.2l-1.8-1.3c-4.5-3.4-11-2.4-14.2 2.3-0.1 0.1-0.2 0.3-0.3 0.5-3.1 4.7-1.6 11.1 3.3 13.9l2 1.1c4.5 2.6 10.3 1.2 13.1-3.1 0 0 0-0.1 0.1-0.1 3-4.3 2-10.1-2.2-13.3zM574.4 649c-5.8-2.5-12.6 0.5-14.6 6.5-5.9 17.2-8.9 35.2-8.9 53.7v0.3c0 6.3 5.4 11.4 11.7 10.9 5.8-0.4 10.2-5.2 10.2-11v-0.1c0-16 2.6-31.6 7.6-46.5 2-5.5-0.6-11.5-6-13.8z m0 0"  /></svg>