<?xml version="1.0" standalone="no"?><!DOCTYPE svg PUBLIC "-//W3C//DTD SVG 1.1//EN" "http://www.w3.org/Graphics/SVG/1.1/DTD/svg11.dtd"><svg class="icon" width="200px" height="200.00px" viewBox="0 0 1024 1024" version="1.1" xmlns="http://www.w3.org/2000/svg"><path d="M782.766308 126.147048 244.289284 126.147048c-32.990369 0-59.830667 26.840298-59.830667 59.830667L184.458617 860.971973c0 32.990369 26.840298 59.830667 59.830667 59.830667l538.478048 0c32.991392 0 59.83169-26.840298 59.83169-59.830667L842.599022 185.977715C842.597999 152.987347 815.758724 126.147048 782.766308 126.147048zM802.71157 860.971973c0 10.996448-8.946766 19.943215-19.944238 19.943215L244.289284 880.915188c-10.997472 0-19.943215-8.946766-19.943215-19.943215L224.346069 185.977715c0-10.997472 8.946766-19.943215 19.943215-19.943215l538.478048 0c10.997472 0 19.944238 8.946766 19.944238 19.943215L802.71157 860.971973z"  /><path d="M402.176221 476.468762l-78.632895 0c-3.998057 0-5.774517 9.007141-5.774517 13.000082l0 78.619592c0 3.991917 1.77646 1.502213 5.774517 1.502213l78.632895 0c3.973498 0 9.736758 2.490727 9.736758-1.502213l0-78.619592C411.912979 485.475903 406.149718 476.468762 402.176221 476.468762z"  /><path d="M550.415426 476.468762l-78.579683 0c-3.998057 0-7.734148 3.190669-7.734148 7.18361l0 78.618569c0 3.992941 3.735068 7.318686 7.734148 7.318686l78.579683 0c4.000104 0 7.830339-3.325745 7.830339-7.318686l0-78.618569C558.245765 479.660454 554.41553 476.468762 550.415426 476.468762z"  /><path d="M696.670441 476.468762l-78.58173 0c-3.997034 0-6.630001 3.190669-6.630001 7.18361l0 78.618569c0 3.992941 2.632967 7.318686 6.630001 7.318686l78.58173 0c3.998057 0 7.909134-3.325745 7.909134-7.318686l0-78.618569C704.578552 479.660454 700.668499 476.468762 696.670441 476.468762z"  /><path d="M402.176221 596.195587l-78.632895 0c-3.998057 0-5.774517 8.942673-5.774517 12.93459l0 78.619592c0 3.991917 1.77646 1.566682 5.774517 1.566682l78.632895 0c3.973498 0 9.736758 2.425236 9.736758-1.566682l0-78.619592C411.912979 605.139284 406.149718 596.195587 402.176221 596.195587z"  /><path d="M550.415426 596.195587l-78.579683 0c-3.998057 0-7.734148 3.1262-7.734148 7.118118l0 78.617545c0 3.992941 3.735068 7.385201 7.734148 7.385201l78.579683 0c4.000104 0 7.830339-3.391237 7.830339-7.385201L558.245765 603.313705C558.245765 599.321788 554.41553 596.195587 550.415426 596.195587z"  /><path d="M696.670441 596.195587l-78.58173 0c-3.997034 0-6.630001 3.1262-6.630001 7.118118l0 78.617545c0 3.992941 2.632967 7.385201 6.630001 7.385201l78.58173 0c3.998057 0 7.909134-3.391237 7.909134-7.385201L704.579575 603.313705C704.578552 599.321788 700.668499 596.195587 696.670441 596.195587z"  /><path d="M402.176221 715.922413l-78.632895 0c-3.998057 0-5.774517 8.877181-5.774517 12.865006l0 78.629825c0 3.985778 1.77646 0.602727 5.774517 0.602727l78.632895 0c3.973498 0 9.736758 3.38305 9.736758-0.602727l0-78.629825C411.912979 724.799594 406.149718 715.922413 402.176221 715.922413z"  /><path d="M550.415426 715.922413l-78.579683 0c-3.998057 0-7.734148 3.059686-7.734148 7.046486l0 78.631872c0 3.986801 3.735068 6.4192 7.734148 6.4192l78.579683 0c4.000104 0 7.830339-2.433422 7.830339-6.4192L558.245765 722.968899C558.245765 718.983121 554.41553 715.922413 550.415426 715.922413z"  /><path d="M696.670441 715.922413l-78.58173 0c-3.997034 0-6.630001 3.059686-6.630001 7.046486l0 78.631872c0 3.986801 2.632967 6.4192 6.630001 6.4192l78.58173 0c3.998057 0 7.909134-2.433422 7.909134-6.4192L704.579575 722.968899C704.578552 718.983121 700.668499 715.922413 696.670441 715.922413z"  /><path d="M650.95219 224.735437l-280.119839 0c-16.703427 0-33.675984 7.736195-46.562479 21.224394-12.585643 13.171997-19.803022 30.247908-19.803022 46.850028l0 54.359049c0 34.033118 30.392194 62.783928 66.3655 62.783928l280.119839 0c35.724643 0 65.906036-28.751834 65.906036-62.783928l0-54.359049C716.858226 257.18243 685.444772 224.735437 650.95219 224.735437zM676.949284 347.169931c0 11.972683-12.391215 22.874987-25.997094 22.874987l-280.119839 0c-15.141862 0-26.456558-12.07706-26.456558-22.874987l0-54.359049c0-13.161764 14.093996-28.16548 26.456558-28.16548l280.119839 0c12.391215 0 25.997094 14.740726 25.997094 28.16548L676.949284 347.169931z"  /></svg>