<?xml version="1.0" standalone="no"?><!DOCTYPE svg PUBLIC "-//W3C//DTD SVG 1.1//EN" "http://www.w3.org/Graphics/SVG/1.1/DTD/svg11.dtd"><svg class="icon" width="200px" height="200.00px" viewBox="0 0 1024 1024" version="1.1" xmlns="http://www.w3.org/2000/svg"><path d="M379.2896 200.7552v107.008h314.0096v-107.008H379.2896zM347.136 136.5504h378.2144c17.7152 0 32.1024 14.336 32.1024 32.1024v171.264c0 17.7152-14.336 32.1024-32.1024 32.1024H347.136a32.1024 32.1024 0 0 1-32.1536-32.1024V168.6528c0-17.7664 14.3872-32.1024 32.1536-32.1024zM253.4912 872.448a99.8912 99.8912 0 1 1 0-199.8336 99.8912 99.8912 0 0 1 0 199.8336z m0-64.2048a35.6864 35.6864 0 1 0 0-71.3728 35.6864 35.6864 0 0 0 0 71.3728zM540.7232 872.448a99.8912 99.8912 0 1 1 0-199.8336 99.8912 99.8912 0 0 1 0 199.8336z m0-64.2048a35.6864 35.6864 0 1 0 0-71.3728 35.6864 35.6864 0 0 0 0 71.3728zM828.8768 872.448a99.8912 99.8912 0 1 1 0-199.8336 99.8912 99.8912 0 0 1 0 199.8336z m0-64.2048a35.6864 35.6864 0 1 0 0-71.3728 35.6864 35.6864 0 0 0 0 71.3728z"  /><path d="M285.0816 521.4208v175.3088a32.1024 32.1024 0 0 1-64.2048 0v-207.36c0-17.7664 14.336-32.1536 32.1024-32.1536h574.6688c17.7152 0 32.1024 14.336 32.1024 32.1024v207.36a32.1024 32.1024 0 0 1-64.2048 0v-175.2576h-510.464z"  /><path d="M507.7504 348.672a32.1024 32.1024 0 1 1 64.2048 0v348.9792a32.1024 32.1024 0 1 1-64.2048 0V348.6208z"  /></svg>